<svg width="26" height="25" viewBox="0 0 26 25" fill="none" xmlns="http://www.w3.org/2000/svg">
<g clip-path="url(#clip0_1_373)">
<mask id="mask0_1_373" style="mask-type:luminance" maskUnits="userSpaceOnUse" x="0" y="0" width="26" height="25">
<path d="M25.5249 0H0.524902V25H25.5249V0Z" fill="white"/>
</mask>
<g mask="url(#mask0_1_373)">
<path d="M19.9632 0H6.08657C3.01494 0 0.524902 2.49004 0.524902 5.56167V19.4383C0.524902 22.51 3.01494 25 6.08657 25H19.9632C23.0349 25 25.5249 22.51 25.5249 19.4383V5.56167C25.5249 2.49004 23.0349 0 19.9632 0Z" fill="url(#paint0_linear_1_373)"/>
<path d="M12.2625 21.8867C11.5166 21.62 11.3566 21.2575 11.0508 19.1334C10.695 16.6642 10.6175 15.1359 10.8233 14.6517C11.0966 14.01 11.8383 13.6459 12.8758 13.6417C13.905 13.6375 14.6533 14.005 14.9283 14.6517C15.135 15.135 15.0575 16.6642 14.7016 19.1334C14.46 20.8584 14.3266 21.2942 13.9933 21.5875C13.535 21.9934 12.885 22.1059 12.2683 21.8875L12.2625 21.8867ZM9.07664 19.3534C6.50164 18.0867 4.85164 15.9434 4.25164 13.0917C4.10164 12.3559 4.07664 10.6 4.21831 9.92505C4.59331 8.11255 5.30997 6.69505 6.50164 5.44171C8.21831 3.63172 10.4266 2.67505 12.885 2.67505C15.3183 2.67505 17.5183 3.61422 19.1933 5.37005C20.4683 6.69505 21.185 8.09755 21.5516 9.94505C21.6766 10.56 21.6766 12.2367 21.56 12.9284C21.1766 15.115 19.96 17.1067 18.185 18.445C17.5516 18.9234 16.0016 19.7584 15.7516 19.7584C15.66 19.7584 15.6516 19.6634 15.6933 19.2792C15.7683 18.6625 15.8433 18.5342 16.1933 18.3875C16.7516 18.1542 17.7016 17.4775 18.285 16.8925C19.2933 15.8925 20.035 14.5842 20.3766 13.2092C20.5933 12.3509 20.5683 10.4425 20.3266 9.55921C19.5683 6.75088 17.2766 4.56755 14.4683 3.98422C13.6516 3.81755 12.1683 3.81755 11.3433 3.98422C8.50164 4.56755 6.15164 6.85921 5.43497 9.74255C5.24331 10.5259 5.24331 12.4342 5.43497 13.2175C5.90997 15.1259 7.14331 16.8759 8.75997 17.9175C9.07664 18.1259 9.45997 18.3425 9.61831 18.4092C9.96831 18.5592 10.0433 18.6842 10.11 19.3009C10.1516 19.6759 10.1433 19.7842 10.0516 19.7842C9.99331 19.7842 9.56831 19.6009 9.11831 19.3842L9.07664 19.3534ZM9.10997 15.9634C8.24331 15.2717 7.47664 14.045 7.15997 12.8417C6.96831 12.115 6.96831 10.7334 7.16831 10.0084C7.69331 8.05171 9.13497 6.53505 11.135 5.82255C11.8183 5.58088 13.335 5.52671 14.1766 5.71255C17.0766 6.35838 19.135 9.26255 18.735 12.1434C18.5766 13.3042 18.1766 14.2575 17.4683 15.1434C17.1183 15.5909 16.2683 16.3417 16.1183 16.3417C16.0933 16.3417 16.0683 16.0584 16.0683 15.7134V15.0834L16.5016 14.5667C18.135 12.61 18.0183 9.87671 16.235 8.08338C15.5433 7.38505 14.7433 6.97505 13.71 6.78588C13.0433 6.66255 12.9016 6.66255 12.2016 6.77755C11.1391 6.95088 10.3158 7.36255 9.58497 8.08588C7.79331 9.86088 7.67664 12.6084 9.30997 14.5667L9.73997 15.0834V15.7167C9.73997 16.0667 9.71247 16.35 9.67831 16.35C9.64497 16.35 9.40331 16.1834 9.14497 15.975L9.10997 15.9634ZM12.0016 12.5609C11.26 12.2159 10.86 11.565 10.8516 10.7167C10.8516 9.95421 11.2766 9.28921 12.01 8.90005C12.4766 8.65505 13.3016 8.65505 13.7683 8.90171C14.2766 9.16588 14.6933 9.67838 14.8516 10.2134C15.335 11.8567 13.5933 13.2967 12.0183 12.5609H12.0016Z" fill="white"/>
<path d="M13.0153 12.8842C14.1632 12.8842 15.0937 11.9537 15.0937 10.8059C15.0937 9.65804 14.1632 8.72754 13.0153 8.72754C11.8675 8.72754 10.937 9.65804 10.937 10.8059C10.937 11.9537 11.8675 12.8842 13.0153 12.8842Z" fill="white"/>
<path d="M13.2146 13.6892C13.3588 13.7084 13.6454 13.7459 13.9104 13.8309C14.1771 13.9142 14.4188 14.045 14.6071 14.1792C14.7904 14.3125 14.9238 14.4509 15.0071 14.6192C15.0904 14.7875 15.1321 14.9875 15.1571 15.315C15.1738 15.6434 15.1738 16.0984 15.0988 16.9484C15.0238 17.7959 14.8738 19.0384 14.7571 19.8342C14.6404 20.6342 14.5571 20.9842 14.4488 21.2425C14.3404 21.5092 14.1988 21.6842 14.0404 21.8092C13.8821 21.9342 13.6988 22.0092 13.5238 22.0509C13.3488 22.0925 13.1904 22.0925 13.0404 22.0925C12.8904 22.0925 12.7488 22.0925 12.5571 22.0509C12.3654 22.0092 12.1154 21.9342 11.9321 21.7842C11.7404 21.6342 11.6154 21.4175 11.5154 21.1342C11.4154 20.8509 11.3404 20.5092 11.2404 19.8259C11.1404 19.1425 11.0071 18.1259 10.9238 17.3509C10.8404 16.5759 10.8071 16.0425 10.8004 15.6842C10.7921 15.3259 10.8088 15.1484 10.8504 14.9759C10.8921 14.8092 10.9588 14.6509 11.0504 14.5175C11.1421 14.3842 11.2621 14.2675 11.3838 14.1759C11.5029 14.0842 11.6254 14.0175 11.7721 13.9659C11.9171 13.9075 12.0913 13.8575 12.3054 13.8159C12.5221 13.7742 12.7721 13.7325 12.9004 13.7159C13.0288 13.6967 13.0288 13.6967 13.1721 13.7159L13.2146 13.6892Z" fill="white"/>
</g>
</g>
<defs>
<linearGradient id="paint0_linear_1_373" x1="12.9991" y1="25.3175" x2="12.7874" y2="-2.22047e-06" gradientUnits="userSpaceOnUse">
<stop stop-color="#822CBE"/>
<stop offset="1" stop-color="#D772FB"/>
</linearGradient>
<clipPath id="clip0_1_373">
<rect width="25" height="25" fill="white" transform="translate(0.524902)"/>
</clipPath>
</defs>
</svg>
