<svg width="26" height="25" viewBox="0 0 26 25" fill="none" xmlns="http://www.w3.org/2000/svg">
<g clip-path="url(#clip0_1_384)">
<mask id="mask0_1_384" style="mask-type:luminance" maskUnits="userSpaceOnUse" x="0" y="0" width="26" height="25">
<path d="M25.5249 0H0.524902V25H25.5249V0Z" fill="white"/>
</mask>
<g mask="url(#mask0_1_384)">
<path d="M3.6499 11.6477V13.3523C3.6499 14.2153 2.95034 14.9149 2.0874 14.9149C1.22446 14.9149 0.524902 14.2153 0.524902 13.3523V11.6477C0.524902 10.7848 1.22446 10.0852 2.0874 10.0852C2.95034 10.0852 3.6499 10.7848 3.6499 11.6477Z" fill="#0066D9"/>
<path d="M22.4005 11.6922C22.4001 11.6774 22.3999 11.6625 22.3999 11.6477C22.3999 10.7848 23.0995 10.0852 23.9624 10.0852C24.8253 10.0852 25.5249 10.7848 25.5249 11.6477C25.5249 11.6626 25.5247 11.6774 25.5243 11.6922L25.5249 13.3967C25.5014 14.2391 24.8105 14.9148 23.9624 14.9148C23.1143 14.9148 22.424 14.2391 22.4005 13.3967V11.6922Z" fill="#4285F4"/>
<path d="M9.04834 16.7615V18.466C9.04834 19.329 8.34883 20.0285 7.48584 20.0285C6.62285 20.0285 5.92334 19.329 5.92334 18.466V16.7614C5.92334 15.8985 6.6229 15.1989 7.48584 15.1989C8.34878 15.1989 9.04834 15.8986 9.04834 16.7615ZM9.04834 6.53418V12.1095C9.02949 12.956 8.33691 13.6365 7.48584 13.6365C6.63476 13.6365 5.94262 12.956 5.92378 12.1095L5.92334 6.53418C5.92334 5.67124 6.6229 4.97168 7.48584 4.97168C8.34878 4.97168 9.04834 5.67124 9.04834 6.53418Z" fill="#EA4335"/>
<path d="M17.0015 8.23874C17.0015 9.10169 17.701 9.80125 18.564 9.80125C19.427 9.80125 20.1265 9.10169 20.1265 8.23874V6.53419C20.1265 5.67124 19.4269 4.97168 18.564 4.97168C17.701 4.97168 17.0015 5.67124 17.0015 6.53419V8.23874Z" fill="#34A853"/>
<path d="M11.4624 3.26709C11.4624 4.12998 12.162 4.82959 13.0249 4.82959C13.8878 4.82959 14.5874 4.12998 14.5874 3.26709V1.5625C14.5874 0.699561 13.8878 0 13.0249 0C12.162 0 11.4624 0.699561 11.4624 1.5625V3.26709ZM11.4624 21.7329C11.4624 20.87 12.162 20.1704 13.0249 20.1704C13.8878 20.1704 14.5874 20.87 14.5874 21.7329V23.4375C14.5874 24.3004 13.8878 25 13.0249 25C12.162 25 11.4624 24.3004 11.4624 23.4375V21.7329Z" fill="#FAB908"/>
<path d="M17.0015 12.926C17.0015 12.0631 17.701 11.3635 18.564 11.3635C19.427 11.3635 20.1265 12.0631 20.1265 12.926V18.4658C20.1265 19.3288 19.4269 20.0283 18.564 20.0283C17.701 20.0283 17.0015 19.3288 17.0015 18.4658V12.926Z" fill="#34A853"/>
<path d="M14.5874 7.95459V17.0454C14.5874 17.9084 13.8878 18.6079 13.0249 18.6079C12.162 18.6079 11.4624 17.9084 11.4624 17.0454V7.95459C11.4624 7.0916 12.162 6.39209 13.0249 6.39209C13.8878 6.39209 14.5874 7.0916 14.5874 7.95459Z" fill="#FAB908"/>
</g>
</g>
<defs>
<clipPath id="clip0_1_384">
<rect width="25" height="25" fill="white" transform="translate(0.524902)"/>
</clipPath>
</defs>
</svg>
