<svg width="27" height="30" viewBox="0 0 27 30" fill="none" xmlns="http://www.w3.org/2000/svg">
<path d="M25.576 3.39867L25.5325 3.36878L20.0343 0.390137L14.1 9.09105L16.8302 13.0944C16.7485 14.6042 16.1663 16.0286 15.1937 17.098C14.2212 18.1675 12.9258 18.8077 11.5529 18.8975L7.91239 15.8952L0 22.4208L2.68619 28.4163L2.70879 28.4669L2.73603 28.5146C2.87938 28.7686 3.07946 28.978 3.31722 29.123C3.55498 29.2679 3.82252 29.3435 4.09436 29.3425H5.51307C8.24663 29.3425 10.9534 28.7504 13.4789 27.6001C16.0044 26.4498 18.2991 24.7637 20.232 22.6382C22.1649 20.5126 23.6982 17.9893 24.7443 15.2121C25.7904 12.435 26.3288 9.45846 26.3288 6.45251V4.89235C26.3296 4.59343 26.2609 4.29924 26.1291 4.03778C25.9974 3.77632 25.8069 3.5563 25.576 3.39867ZM24.2969 6.45251C24.2969 17.8421 15.8705 27.1082 5.51307 27.1082H4.3651L2.56783 23.0961L7.91277 18.6879L10.8886 21.1421H11.2272C13.254 21.1396 15.1971 20.2531 16.6303 18.6771C18.0635 17.1011 18.8696 14.9644 18.8719 12.7356V12.3632L16.6401 9.09099L20.6484 3.21378L24.2969 5.19049V6.45251Z" fill="#2B2B2B"/>
</svg>
