<svg width="32" height="36" viewBox="0 0 32 36" fill="none" xmlns="http://www.w3.org/2000/svg">
<path d="M15.9142 0.390137C11.588 0.390137 11.0488 0.413108 9.35572 0.491868C7.65568 0.583755 6.50573 0.873635 5.49108 1.30681C4.44459 1.7575 3.55328 2.35585 2.67292 3.32941C1.78659 4.2975 1.23748 5.27762 0.833609 6.42839C0.439684 7.54416 0.176073 8.80869 0.0925127 10.6781C0.0159162 12.541 0 13.1328 0 17.8901C0 22.6474 0.02089 23.2403 0.0925127 25.1021C0.176073 26.9661 0.439684 28.2361 0.833609 29.3519C1.24345 30.5027 1.78758 31.4828 2.67292 32.4509C3.55328 33.4255 4.44459 34.0293 5.49108 34.4735C6.50573 34.9012 7.66065 35.1965 9.35572 35.2884C11.0498 35.3726 11.588 35.3901 15.9142 35.3901C20.2404 35.3901 20.7796 35.3672 22.4726 35.2884C24.1677 35.1965 25.3226 34.9001 26.3373 34.4735C27.3838 34.0228 28.2751 33.4244 29.1554 32.4509C30.0418 31.4828 30.5909 30.5081 30.9947 29.3519C31.3837 28.2361 31.6523 26.9661 31.7358 25.1021C31.8124 23.2392 31.8284 22.6474 31.8284 17.8901C31.8284 13.1328 31.8075 12.5399 31.7358 10.6781C31.6523 8.81416 31.3827 7.53759 30.9947 6.42839C30.5849 5.27762 30.0408 4.2975 29.1554 3.32941C28.2751 2.35476 27.3887 1.75093 26.3373 1.30681C25.3226 0.873635 24.1677 0.583755 22.4726 0.491868C20.7786 0.407639 20.2404 0.390137 15.9142 0.390137ZM15.9142 3.54053C20.1628 3.54053 20.6701 3.5635 22.3493 3.64226C23.8981 3.72212 24.7417 4.00653 25.3017 4.24718C26.0488 4.5655 26.571 4.9418 27.1361 5.55656C27.6902 6.16586 28.0323 6.74671 28.3218 7.56822C28.5407 8.18408 28.7993 9.1117 28.8719 10.8149C28.9435 12.6614 28.9644 13.2203 28.9644 17.8912C28.9644 22.5621 28.9436 23.1211 28.866 24.9676C28.7824 26.6708 28.5238 27.5984 28.3059 28.2142C28.0045 29.0357 27.6683 29.61 27.1132 30.2314C26.5531 30.8407 26.0199 31.217 25.2789 31.5353C24.7258 31.7759 23.8703 32.0603 22.3155 32.1402C20.6274 32.219 20.13 32.2419 15.8704 32.2419C11.6108 32.2419 11.1145 32.219 9.42436 32.1336C7.87552 32.0417 7.02102 31.7573 6.46097 31.5178C5.70495 31.1863 5.18668 30.8166 4.6316 30.2062C4.07155 29.5903 3.71543 29.004 3.44088 28.1891C3.21805 27.5809 2.96339 26.6401 2.88083 24.9304C2.82412 23.0959 2.79727 22.5271 2.79727 17.865C2.79727 13.205 2.82412 12.6351 2.88083 10.7777C2.96339 9.06794 3.21805 8.12939 3.44088 7.519C3.71543 6.68655 4.07255 6.11773 4.6316 5.50187C5.18569 4.89257 5.70495 4.49878 6.46097 4.1903C7.02102 3.95074 7.85463 3.66633 9.40944 3.581C11.0975 3.51428 11.5949 3.49021 15.8485 3.49021L15.9142 3.54053ZM15.9142 8.90823C11.397 8.90823 7.74421 12.9305 7.74421 17.8923C7.74421 22.8597 11.4019 26.8764 15.9142 26.8764C20.4314 26.8764 24.0841 22.8542 24.0841 17.8923C24.0841 12.925 20.4264 8.90823 15.9142 8.90823ZM15.9142 23.726C12.9816 23.726 10.6091 21.1171 10.6091 17.8923C10.6091 14.6675 12.9816 12.0586 15.9142 12.0586C18.8467 12.0586 21.2192 14.6675 21.2192 17.8923C21.2192 21.1171 18.8467 23.726 15.9142 23.726ZM26.3234 8.54944C26.3234 9.71224 25.4629 10.6508 24.4104 10.6508C23.353 10.6508 22.4995 9.71115 22.4995 8.54944C22.4995 7.3932 23.359 6.45246 24.4104 6.45246C25.4619 6.45246 26.3234 7.3932 26.3234 8.54944Z" fill="#AF2B36"/>
</svg>
