<svg width="37" height="30" viewBox="0 0 37 30" fill="none" xmlns="http://www.w3.org/2000/svg">
<path d="M18.3742 0C12.7067 0 7.38457 0.46875 4.5508 1.12427C2.66274 1.59302 1.02955 2.99927 0.687482 5.15625C0.345415 7.40479 0 10.7812 0 15C0 19.2188 0.342067 22.5 0.771324 24.8438C1.11674 26.9055 2.74658 28.407 4.63464 28.8757C7.6428 29.5313 12.7905 30 18.4581 30C24.1256 30 29.2734 29.5313 32.2782 28.8757C34.1696 28.407 35.7994 27.0007 36.1415 24.8438C36.4869 22.5 36.9162 19.1272 37 14.9084C37 10.6897 36.5707 7.31323 36.1415 4.96948C35.7994 2.90771 34.1696 1.40625 32.2782 0.9375C29.2734 0.46875 24.0384 0 18.3742 0ZM18.3742 1.875C24.5549 1.875 29.5316 2.43531 31.9361 2.90406C33.2239 3.28125 34.2534 4.21875 34.4245 5.43824C34.9409 8.43751 35.283 11.6272 35.283 14.9085C35.1991 18.9368 34.7699 22.218 34.4245 24.5618C34.1696 26.3416 32.4526 26.9055 31.9361 27.096C28.8441 27.7515 23.693 28.2166 18.5419 28.2166C13.3908 28.2166 8.1559 27.843 5.15109 27.096C3.86332 26.7188 2.83377 25.7813 2.66274 24.5618C1.97525 21.9361 1.71703 18.468 1.71703 15C1.71703 10.6861 2.06245 7.50002 2.40451 5.53346C2.66274 3.75002 4.46361 3.18605 4.89287 2.99929C7.72664 2.34377 12.9649 1.875 18.3742 1.875ZM13.7362 7.5V22.5L25.7555 15L13.7362 7.5ZM15.4533 10.6897L22.3214 15L15.4533 19.3103V10.6897Z" fill="white"/>
</svg>
