<svg width="22" height="16" viewBox="0 0 22 16" fill="none" xmlns="http://www.w3.org/2000/svg">
<path d="M20.7234 1.66261L20.6881 1.64609L16.2332 0L11.4247 4.8084L13.637 7.02078C13.5708 7.85512 13.099 8.6423 12.311 9.23331C11.523 9.82432 10.4734 10.1781 9.36093 10.2278L6.41115 8.56859L0 12.1748L2.17653 15.4881L2.19484 15.5161L2.21691 15.5425C2.33306 15.6829 2.49518 15.7986 2.68783 15.8787C2.88049 15.9587 3.09726 16.0005 3.31753 16H4.46706C6.68198 16 8.8752 15.6728 10.9215 15.0371C12.9678 14.4014 14.8272 13.4696 16.3933 12.295C17.9595 11.1203 19.2019 9.72584 20.0495 8.1911C20.8971 6.65636 21.3333 5.01144 21.3333 3.35026V2.48807C21.334 2.32287 21.2783 2.16029 21.1716 2.0158C21.0648 1.87131 20.9105 1.74972 20.7234 1.66261ZM19.687 3.35026C19.687 9.64451 12.8593 14.7653 4.46706 14.7653H3.5369L2.08063 12.548L6.41146 10.1119L8.82264 11.4682H9.09701C10.7393 11.4668 12.3137 10.9769 13.475 10.106C14.6362 9.23502 15.2894 8.05418 15.2913 6.82249V6.61671L13.4829 4.80836L16.7307 1.56043L19.687 2.65283V3.35026Z" fill="white"/>
</svg>
