<svg width="57" height="57" viewBox="0 0 57 57" fill="none" xmlns="http://www.w3.org/2000/svg">
<path d="M0 57L4.02661 42.3637C1.54244 38.0802 0.236079 33.2204 0.237646 28.2432C0.24416 12.6699 12.976 0 28.6194 0C36.2119 0.00341308 43.338 2.9449 48.6958 8.2836C54.0548 13.6222 57.0042 20.7185 57.0012 28.2653C56.9946 43.839 44.262 56.5101 28.6206 56.5101C28.6194 56.5101 28.6213 56.5101 28.6206 56.5101H28.6079C23.8581 56.5086 19.1909 55.3216 15.0457 53.0726L0 57Z" fill="url(#paint0_linear_172_848)"/>
<path fill-rule="evenodd" clip-rule="evenodd" d="M21.2765 16.003C20.7263 14.7852 20.1469 14.7608 19.6235 14.7395C19.1953 14.7212 18.7051 14.7223 18.2157 14.7223C17.7259 14.7223 16.93 14.9055 16.2569 15.6373C15.5835 16.3691 13.6855 18.1381 13.6855 21.7359C13.6855 25.3341 16.3182 28.8108 16.6851 29.2991C17.0525 29.7867 21.7671 37.406 29.2337 40.3372C35.4391 42.7732 36.7018 42.2886 38.0488 42.1667C39.3957 42.0448 42.3949 40.3981 43.0071 38.6904C43.6193 36.9831 43.6193 35.5196 43.4357 35.2137C43.252 34.909 42.7622 34.7261 42.0275 34.3604C41.2928 33.9947 37.6814 32.2254 37.008 31.9816C36.3345 31.7378 35.8447 31.6159 35.3549 32.348C34.8651 33.0794 33.4581 34.7261 33.0295 35.2137C32.601 35.7024 32.1724 35.7634 31.4377 35.3977C30.703 35.0309 28.3371 34.2595 25.5304 31.7682C23.3466 29.8301 21.8723 27.4363 21.4437 26.7042C21.0151 25.9728 21.3978 25.5767 21.7663 25.2121C22.0961 24.8845 22.501 24.3585 22.8683 23.9314C23.2349 23.5044 23.3573 23.1997 23.6022 22.7121C23.8471 22.2237 23.7247 21.7967 23.541 21.4311C23.3573 21.0654 21.9297 17.449 21.2765 16.003Z" fill="white"/>
<defs>
<linearGradient id="paint0_linear_172_848" x1="28.5006" y1="57" x2="28.5006" y2="9.51289e-05" gradientUnits="userSpaceOnUse">
<stop stop-color="#20B038"/>
<stop offset="1" stop-color="#60D66A"/>
</linearGradient>
</defs>
</svg>
