<svg width="18" height="18" viewBox="0 0 18 18" fill="none" xmlns="http://www.w3.org/2000/svg">
<g clip-path="url(#clip0_654_283)">
<path d="M9.00094 3.5625C10.3284 3.5625 11.5172 4.02 12.4547 4.9125L15.0234 2.34375C13.4634 0.8925 11.4272 0 9.00094 0C5.48344 0 2.44219 2.0175 0.960938 4.9575L3.95344 7.27875C4.66219 5.145 6.65344 3.5625 9.00094 3.5625Z" fill="#EA4335"/>
<path d="M17.6175 9.20625C17.6175 8.6175 17.5612 8.0475 17.475 7.5H9V10.8825H13.8525C13.635 11.9925 13.005 12.9375 12.06 13.575L14.9588 15.825C16.65 14.2575 17.6175 11.94 17.6175 9.20625Z" fill="#4285F4"/>
<path d="M3.94875 10.7213C3.76875 10.1775 3.66375 9.60002 3.66375 9.00002C3.66375 8.40002 3.765 7.82252 3.94875 7.27877L0.95625 4.95752C0.345 6.17252 0 7.54502 0 9.00002C0 10.455 0.345 11.8275 0.96 13.0425L3.94875 10.7213Z" fill="#FBBC05"/>
<path d="M9.00078 17.9998C11.4308 17.9998 13.4745 17.201 14.9595 15.821L12.0608 13.571C11.2545 14.1148 10.2158 14.4335 9.00078 14.4335C6.65328 14.4335 4.66203 12.851 3.94953 10.7173L0.957031 13.0385C2.44203 15.9823 5.48328 17.9998 9.00078 17.9998Z" fill="#34A853"/>
</g>
<defs>
<clipPath id="clip0_654_283">
<rect width="18" height="18" fill="white"/>
</clipPath>
</defs>
</svg>
