<svg width="26" height="25" viewBox="0 0 26 25" fill="none" xmlns="http://www.w3.org/2000/svg">
<g clip-path="url(#clip0_1_364)">
<mask id="mask0_1_364" style="mask-type:luminance" maskUnits="userSpaceOnUse" x="0" y="0" width="26" height="25">
<path d="M25.5249 0H0.524902V25H25.5249V0Z" fill="white"/>
</mask>
<g mask="url(#mask0_1_364)">
<path d="M12.7749 22.6836C19.0571 22.6836 24.1499 18.2624 24.1499 12.8086C24.1499 7.35478 19.0571 2.93359 12.7749 2.93359C6.49266 2.93359 1.3999 7.35478 1.3999 12.8086C1.3999 18.2624 6.49266 22.6836 12.7749 22.6836Z" fill="#17171A"/>
<path d="M13.0238 0.0412598C6.14147 0.0412598 0.562012 5.62057 0.562012 12.5029C0.562012 19.3855 6.14147 24.9643 13.0238 24.9643C19.9068 24.9643 25.4857 19.3855 25.4857 12.5029C25.4857 5.62102 19.907 0.0412598 13.0238 0.0412598ZM18.7386 18.0145C18.5154 18.3805 18.0363 18.4966 17.6702 18.2719C14.7443 16.4847 11.061 16.0799 6.72317 17.071C6.30516 17.1663 5.8885 16.9044 5.79326 16.4862C5.69758 16.068 5.95844 15.6514 6.37749 15.5561C11.1245 14.4712 15.1964 14.9386 18.4812 16.946C18.8473 17.1707 18.9633 17.6484 18.7386 18.0145ZM20.2639 14.6209C19.9827 15.0785 19.3845 15.2228 18.9276 14.9416C15.5779 12.8822 10.4718 12.2859 6.50978 13.4886C5.99594 13.6438 5.45323 13.3542 5.29728 12.8413C5.14252 12.3274 5.43225 11.7858 5.94519 11.6295C10.4709 10.2563 16.0973 10.9215 19.944 13.2853C20.4008 13.5666 20.5452 14.1647 20.2639 14.6209ZM20.3949 11.0875C16.3785 8.70197 9.75204 8.48263 5.91737 9.64647C5.30159 9.83322 4.6504 9.4856 4.46379 8.86983C4.27719 8.25376 4.62451 7.60301 5.24073 7.41581C9.64266 6.0795 16.9604 6.33769 21.5845 9.08278C22.1395 9.4115 22.3211 10.1268 21.9922 10.6799C21.6648 11.2338 20.947 11.4164 20.3949 11.0875Z" fill="#1ED760"/>
</g>
</g>
<defs>
<clipPath id="clip0_1_364">
<rect width="25" height="25" fill="white" transform="translate(0.524902)"/>
</clipPath>
</defs>
</svg>
